# xmcd
#
# Track frame offsets:
#	150
#	4403
#	9981
#	15298
#	29191
#	38418
#	48725
#	56207
#	64153
#	70080
#	77683
#	84076
#	91315
#	97482
#	104986
#	109818
#	115349
#	122600
#	129784
#	136857
#	146679
#	154096
#	161524
#	168392
#	178684
#	187308
#	200584
#	211382
#	220203
#	228602
#	233970
#	243786
#	250540
#	261838
#	267453
#	276366
#
# Disc length: 3946 seconds
#
# Revision: 1
# Processed by: cddbd v1.5.1PL0 Copyright (c) Steve Scherf et al.
# Submitted via: CDex 1.50Beta5
#
DISCID=0e0f6824
DTITLE=Sony Computer Entertainment Inc. - ポポロクロイス 〜はじまりの冒険〜
DYEAR=2002
DGENRE=Soundtrack
TTITLE0=プロローグ
TTITLE1=ポポロクロイス城
TTITLE2=ポポロクロイス城下町
TTITLE3=タキネン村
TTITLE4=ポポロ平原〜昼
TTITLE5=ポポロ平原〜夜
TTITLE6=竜の祠
TTITLE7=風の聖域
TTITLE8=炎の聖域
TTITLE9=水の聖域
TTITLE10=フローネルの森
TTITLE11=氷海
TTITLE12=闇の城下町
TTITLE13=闇の聖域
TTITLE14=バトルI
TTITLE15=バトルIi
TTITLE16=バトル〜ファントネシア
TTITLE17=巨大な敵
TTITLE18=せまる影
TTITLE19=闇の精霊
TTITLE20=常闇の王
TTITLE21=旅立ちの朝
TTITLE22=むかしむかし
TTITLE23=母のやさしさ
TTITLE24=小さな涙
TTITLE25=瞳の扉(Instrumental Arrange)
TTITLE26=悲しみ
TTITLE27=勇気
TTITLE28=緊張
TTITLE29=陽だまり
TTITLE30=アクシデント
TTITLE31=友情
TTITLE32=神秘
TTITLE33=コミカル
TTITLE34=ヤズムのテーマ
TTITLE35=瞳の扉
EXTD=
EXTT0=
EXTT1=
EXTT2=
EXTT3=
EXTT4=
EXTT5=
EXTT6=
EXTT7=
EXTT8=
EXTT9=
EXTT10=
EXTT11=
EXTT12=
EXTT13=
EXTT14=
EXTT15=
EXTT16=
EXTT17=
EXTT18=
EXTT19=
EXTT20=
EXTT21=
EXTT22=
EXTT23=
EXTT24=
EXTT25=
EXTT26=
EXTT27=
EXTT28=
EXTT29=
EXTT30=
EXTT31=
EXTT32=
EXTT33=
EXTT34=
EXTT35=
PLAYORDER=
